<?xml version="1.0" encoding="iso-8859-1"?>
<!-- Generator: Adobe Illustrator 16.0.0, SVG Export Plug-In . SVG Version: 6.00 Build 0)  -->
<!DOCTYPE svg PUBLIC "-//W3C//DTD SVG 1.1//EN" "http://www.w3.org/Graphics/SVG/1.1/DTD/svg11.dtd">
<svg version="1.1" id="Capa_1" xmlns="http://www.w3.org/2000/svg" xmlns:xlink="http://www.w3.org/1999/xlink" x="0px" y="0px"
	 width="478.125px" height="478.125px" viewBox="0 0 478.125 478.125" style="enable-background:new 0 0 478.125 478.125;"
	 xml:space="preserve">
<g>
	<path d="M439.875,86.062H38.25C17.212,86.062,0,103.275,0,124.312v229.5c0,21.037,17.212,38.25,38.25,38.25h401.625
		c21.037,0,38.25-17.213,38.25-38.25v-229.5C478.125,103.275,460.912,86.062,439.875,86.062z M418.838,336.6L403.537,351.9
		l-114.75-97.538l-49.725,42.075l-49.725-42.075L74.587,351.9l-15.3-15.301l112.837-97.537L59.288,141.525l15.3-15.3L239.062,267.75
		l164.475-141.525l15.301,15.3L306,239.062L418.838,336.6z"/>
</g>
<g>
</g>
<g>
</g>
<g>
</g>
<g>
</g>
<g>
</g>
<g>
</g>
<g>
</g>
<g>
</g>
<g>
</g>
<g>
</g>
<g>
</g>
<g>
</g>
<g>
</g>
<g>
</g>
<g>
</g>
</svg>
